# xmcd
#
# Track frame offsets: 
#        150
#        11955
#        31484
#        46218
#        54591
#        70405
#        85930
#        102940
#        120418
#        136067
#        156985
#        174765
#        192519
#        210278
#        227609
#        244390
#        256963
#        272002
#        286156
#        307246
#
# Disc length: 4318 seconds
#
# Revision: 1
# Processed by: cddbd v1.5.2PL0 Copyright (c) Steve Scherf et al.
# Submitted via: ExactAudioCopy v0.95b4
#
DISCID=1910dc14
DTITLE=Вячеслав Малежик - Вячеслав Малежик Лучшее, 2002
DYEAR=2002
DGENRE=Folk/Rock
TTITLE0=Не прочь
TTITLE1=Хмурое утро
TTITLE2=Без тебя
TTITLE3=Наташка
TTITLE4=Скорый поезд
TTITLE5=Гадание (Гадалка)
TTITLE6=Любите сказки
TTITLE7=Недавно и давно
TTITLE8=Зима-зима
TTITLE9=Мозаика
TTITLE10=Острова
TTITLE11=Любовь-река
TTITLE12=Медвежий угол
TTITLE13=Ты мне нравишься
TTITLE14=У тебя сегодня свадьба
TTITLE15=Кнут и пряник
TTITLE16=Дорога
TTITLE17=Пробка
TTITLE18=Попутчица
TTITLE19=Двести лет
EXTD=
EXTT0=
EXTT1=
EXTT2=
EXTT3=
EXTT4=
EXTT5=
EXTT6=
EXTT7=
EXTT8=
EXTT9=
EXTT10=
EXTT11=
EXTT12=
EXTT13=
EXTT14=
EXTT15=
EXTT16=
EXTT17=
EXTT18=
EXTT19=
PLAYORDER=
